# xmcd CD database file
#
# Track frame offsets:
#	150
#	11275
#	31088
#	45209
#	64468
#	74131
#	89460
#	116320
#	130427
#	156135
#	166523
#	179908
#	192790
#	211223
#	228989
#
# Disc length: 3313 seconds
#
# Revision: 0
# Processed by: cddbd v1.5.1PL2 Copyright (c) Steve Scherf et al.
# Submitted via: CDex 1.51
#
DISCID=c50cef0f
DTITLE=Peggy Lee - Sings Leiber and Stoller
DYEAR=2005
DGENRE=Jazz
TTITLE0=Kansas City
TTITLE1=Some Cats Know
TTITLE2=Don Juan
TTITLE3=I Ain't Here
TTITLE4=I'm a Woman
TTITLE5=Ready to Begin Again (Manya's Song)
TTITLE6=Professor Hauptmann's Performing Dogs 
TTITLE7=A Little White Ship
TTITLE8=Tango
TTITLE9=I've Got Them Feelin' Too Good Today Blues
TTITLE10=The Case of M.J.
TTITLE11=I Remember
TTITLE12=Say It
TTITLE13=Long fot a Simpler Time
TTITLE14=Is That All There Is?
EXTD=YEAR: 2005
EXTT0=
EXTT1=
EXTT2=
EXTT3=
EXTT4=
EXTT5=
EXTT6=
EXTT7=
EXTT8=
EXTT9=
EXTT10=
EXTT11=
EXTT12=
EXTT13=
EXTT14=
PLAYORDER=
